<?xml version="1.0" encoding="UTF-8" standalone="no"?>
<svg xmlns="http://www.w3.org/2000/svg" width="24" height="24" viewBox="0 0 24 24">
  <defs>
    <linearGradient id="brush_gradient" x1="0%" y1="0%" x2="100%" y2="100%">
      <stop offset="0%" stop-color="#3498db" />
      <stop offset="100%" stop-color="#1a5f9e" />
    </linearGradient>
  </defs>
  <path d="M7 14c-1.66 0-3 1.34-3 3 0 1.31-1.16 2-2 2 .92 1.22 2.49 2 4 2 2.21 0 4-1.79 4-4 0-1.66-1.34-3-3-3z" fill="url(#brush_gradient)"/>
  <path d="m20.71 4.63-1.34-1.34c-.39-.39-1.02-.39-1.41 0L9 12.25 11.75 15l8.96-8.96c.39-.39.39-1.02 0-1.41z" fill="url(#brush_gradient)"/>
</svg> 