<?xml version="1.0" encoding="utf-8"?>
<!-- Generator: Adobe Illustrator 24.0.1, SVG Export Plug-In . SVG Version: 6.00 Build 0)  -->
<svg version="1.1" id="图标" xmlns="http://www.w3.org/2000/svg" xmlns:xlink="http://www.w3.org/1999/xlink" x="0px" y="0px"
     viewBox="0 0 500 500" style="enable-background:new 0 0 500 500;" xml:space="preserve">
<style type="text/css">
    .st0{fill:url(#SVGID_1_);}
    .st1{fill:#F0F4F8;stroke:#003366;stroke-width:10;stroke-linejoin:round;}
    .st2{fill:url(#SVGID_2_);}
    .st3{fill:none;stroke:#003366;stroke-width:10;stroke-linejoin:round;}
</style>
<g id="路径">
    <linearGradient id="SVGID_1_" gradientUnits="userSpaceOnUse" x1="465.8451" y1="209.3645" x2="145.2268" y2="233.5706">
        <stop  offset="0" style="stop-color:#FF2288"/>
        <stop  offset="1" style="stop-color:#007BFF"/>
    </linearGradient>
    <path class="st0" d="M132.3,48.7c15.2-5.8,30.6-10.8,46.1-15.3c3.9-1.1,7.8-2.2,11.7-3.3C194.1,29,198,28,202,27
        c7.9-2,15.8-3.9,23.8-5.5c8-1.6,16-3.1,24-4.4c8.1-1.2,16.2-2.2,24.4-2.8c8.2-0.6,16.5-0.9,24.8-0.3c4.2,0.3,8.4,0.8,12.6,1.7
        c4.2,0.9,8.4,2.1,12.5,4c1,0.5,2,1.1,3,1.6c1,0.6,1.9,1.3,2.9,1.9c0.9,0.7,1.8,1.5,2.7,2.3c0.8,0.9,1.6,1.8,2.4,2.7
        c2.9,3.9,4.4,8.9,4.4,13.5c0,4.6-1,9-2.4,13c-0.4,1-0.8,2-1.2,3l-0.6,1.5l-0.7,1.4l-1.4,2.8l-1.5,2.7c-1,1.8-2.1,3.6-3.2,5.3
        c-1.1,1.8-2.2,3.4-3.2,5.1c-2,3.4-3.9,6.9-5.4,10.5c-1.5,3.6-2.6,7.4-3.1,11.2c-0.5,3.8-0.3,7.7,0.9,11.3c1.2,3.6,3.3,6.9,6,9.6
        c2.7,2.7,6,5,9.4,6.8c7,3.7,14.6,6.3,22.3,8.2c15.5,4.1,31.6,6,47.6,9.5c4,0.9,8,1.9,12,3.2c4,1.3,8,2.9,11.8,5.4
        c1.9,1.3,3.8,2.8,5.3,4.8c1.6,2,2.8,4.5,3.2,7.1c0.4,2.6,0.2,5.2-0.4,7.6c-0.6,2.3-1.5,4.5-2.5,6.5c-2.1,4-4.6,7.5-7.3,10.7
        c-2.7,3.2-5.6,6.3-8.5,9.2c-3,2.9-6,5.7-9.1,8.4c-1.6,1.3-3.1,2.7-4.7,4l-2.3,1.9c-0.7,0.6-1.5,1.3-2.2,1.9
        c-5.8,5.2-11.2,10.8-15.4,17c-4.2,6.2-7.1,13-7.7,20c-0.6,7,1,14,4.3,20.6c3.2,6.6,7.8,12.8,13,18.6c10.4,11.6,22.8,21.8,35.2,32
        c12.4,10.3,25.4,20.2,36.7,32.6c2.8,3.1,5.5,6.5,7.7,10.2c2.3,3.7,4.2,7.8,5,12.4c0.4,2.3,0.4,4.7,0.1,7c-0.3,2.3-1.1,4.6-2.1,6.7
        c-2,4.1-5.1,7.4-8.3,10.2c-3.3,2.8-6.7,5.1-10.4,7.1c-3.6,2-7.3,3.8-11.1,5.4c-3.8,1.6-7.6,3-11.4,4.4c-3.8,1.3-7.7,2.5-11.6,3.7
        l-0.3-0.9c7.5-3.1,14.9-6.3,21.9-10.1c3.5-1.9,7-3.9,10.3-6.1c3.3-2.2,6.4-4.6,9.1-7.2c2.7-2.7,5-5.7,6.3-8.9
        c1.3-3.2,1.7-6.6,0.9-10c-0.8-3.4-2.4-6.6-4.6-9.7c-2.2-3.1-4.7-6-7.4-8.8c-5.4-5.6-11.6-10.6-17.8-15.6c-6.2-5-12.7-9.9-19.1-14.8
        c-6.4-4.9-12.8-10-19.1-15.3c-6.3-5.3-12.3-11-18-17.2c-2.8-3.1-5.5-6.4-8-9.9c-2.5-3.5-4.8-7.2-6.7-11.2c-1.9-4-3.4-8.2-4.3-12.7
        c-0.9-4.4-1.2-9.1-0.7-13.7c0.2-2.3,0.7-4.5,1.2-6.7c0.6-2.2,1.3-4.3,2.2-6.4c1.7-4.1,3.9-8,6.4-11.5c5-7.1,11.1-13.1,17.4-18.5
        c0.8-0.7,1.6-1.3,2.4-2l2.4-1.9c1.6-1.2,3.1-2.5,4.6-3.8c3.1-2.5,6-5.1,8.9-7.8c2.9-2.7,5.7-5.4,8.2-8.3c2.5-2.9,4.9-5.9,6.7-9
        c1.8-3.1,2.9-6.4,2.6-9.1c-0.1-1.4-0.6-2.7-1.5-3.9c-0.8-1.3-2.1-2.4-3.5-3.5c-2.8-2.1-6.3-3.8-10-5.2c-3.6-1.4-7.4-2.6-11.3-3.6
        c-7.7-2.1-15.6-3.9-23.5-5.7c-3.9-0.9-7.9-1.8-11.8-2.8c-4-0.9-7.9-1.9-11.8-3.1c-7.8-2.3-15.6-4.8-22.9-8.8
        c-3.6-2-7.1-4.4-10.1-7.4c-3-3-5.5-6.6-6.9-10.7c-1.4-4.1-1.8-8.5-1.4-12.7c0.4-4.2,1.5-8.3,2.9-12.3c1.4-3.9,3.2-7.7,5.1-11.4
        c0.9-1.8,2.1-3.6,3-5.4c0.9-1.7,1.9-3.5,2.7-5.2l1.3-2.7l1.1-2.7l0.6-1.3l0.5-1.4c0.3-0.9,0.6-1.8,0.9-2.7c1-3.6,1.6-7.3,1.3-10.8
        c-0.3-3.5-1.4-6.5-3.4-9c-2-2.5-5-4.3-8.3-5.8c-3.3-1.4-6.9-2.4-10.7-3c-3.8-0.6-7.6-1.1-11.5-1.3c-1-0.1-1.9-0.1-2.9-0.1l-2.9-0.1
        c-2,0-3.9-0.1-5.9,0c-3.9,0-7.9,0.2-11.9,0.4c-7.9,0.5-15.9,1.3-23.8,2.4c-7.9,1-15.9,2.2-23.8,3.6c-31.7,5.5-63.1,12.8-94.5,20.6
        L132.3,48.7z"/>
</g>
<g id="鼠标_1_" transform="rotate(-15 250 250)">
    <g id="背景">
        <path id="左键" class="st1" d="M58.6,198.9v-17c0-84,60-153,133-153h7l0,170L58.6,198.9z"/>
        <path id="不知道" class="st1" d="M58.6,198.9l0,112c0,82,54,153,140,153s140-71,140-153v-112L58.6,198.9z"/>
    </g>
    <g id="右键">
        <g>
            <linearGradient id="SVGID_2_" gradientUnits="userSpaceOnUse" x1="-373.8634" y1="611.4753" x2="-374.8634" y2="611.4753" gradientTransform="matrix(135.2296 43.9992 36.2346 -164.2074 28739.3809 116972.3594)">
                <stop  offset="0" style="stop-color:#FF2288"/>
                <stop  offset="1" style="stop-color:#007BFF"/>
            </linearGradient>
            <path class="st2" d="M338.6,198.9v-17c0-84-60-153-133-153h-7l0,170L338.6,198.9z"/>
            <path class="st3" d="M338.6,198.9v-17c0-84-60-153-133-153h-7l0,170L338.6,198.9z"/>
        </g>
    </g>
</g>
</svg>
