<?xml version="1.0" encoding="UTF-8" standalone="no"?>
<svg xmlns="http://www.w3.org/2000/svg" width="24" height="24" viewBox="0 0 24 24">
  <defs>
    <linearGradient id="save_gradient" x1="0%" y1="0%" x2="100%" y2="100%">
      <stop offset="0%" stop-color="#FF2288" />
      <stop offset="100%" stop-color="#007BFF" />
    </linearGradient>
  </defs>
  <path d="M17 3H5a2 2 0 0 0-2 2v14a2 2 0 0 0 2 2h14c1.1 0 2-.9 2-2V7l-4-4z" fill="url(#save_gradient)"/>
  <path d="M12 19c1.66 0 3-1.34 3-3s-1.34-3-3-3-3 1.34-3 3 1.34 3 3 3z" fill="#ffffff" opacity="0.9"/>
  <path d="M15 9H5V5h10v4z" fill="#ffffff" opacity="0.9"/>
</svg> 